<svg xmlns="http://www.w3.org/2000/svg" xmlns:xlink="http://www.w3.org/1999/xlink" width="972" height="526.2"><rect width="972" height="526.2" rx="5" ry="5" class="a"></rect><svg y="0%" x="0%"><circle cx="20" cy="20" r="6" class="b"></circle><circle cx="40" cy="20" r="6" class="c"></circle><circle cx="60" cy="20" r="6" class="d"></circle></svg><svg height="434.20000000000005" viewBox="0 0 90 43.42" width="900" x="31" xmlns="http://www.w3.org/2000/svg" xmlns:xlink="http://www.w3.org/1999/xlink" y="66"><style>.a{fill:rgb(40,45,53)}.b{fill:#ff5f58}.c{fill:#ffbd2e}.d{fill:#18c132}.e{font-family:Monaco,Consolas,Menlo,'Bitstream Vera Sans Mono','Powerline Symbols',monospace}.f{fill:rgb(168,204,140);white-space:pre}.g{fill:rgb(185,192,203);white-space:pre}.h{fill:rgb(111,119,131);white-space:pre}.i{fill:rgb(113,190,242);white-space:pre}.j{fill:rgb(219,171,121);white-space:pre}.k{fill:transparent}.l{fill:rgb(111,118,131)}.n{animation-duration:8s;animation-iteration-count:infinite;animation-name:m;animation-timing-function:steps(1,end)}@keyframes m{0%{transform:translateX(-0px)}0%{transform:translateX(-90px)}3.8%{transform:translateX(-180px)}4.4%{transform:translateX(-270px)}5%{transform:translateX(-360px)}5.6%{transform:translateX(-450px)}6.3%{transform:translateX(-540px)}6.5%{transform:translateX(-630px)}6.9%{transform:translateX(-720px)}7.5%{transform:translateX(-810px)}8.1%{transform:translateX(-900px)}8.8%{transform:translateX(-990px)}9.1%{transform:translateX(-1080px)}9.5%{transform:translateX(-1170px)}10%{transform:translateX(-1260px)}10.4%{transform:translateX(-1350px)}10.8%{transform:translateX(-1440px)}11.1%{transform:translateX(-1530px)}11.5%{transform:translateX(-1620px)}11.9%{transform:translateX(-1710px)}12.3%{transform:translateX(-1800px)}12.6%{transform:translateX(-1890px)}13%{transform:translateX(-1980px)}13.4%{transform:translateX(-2070px)}13.8%{transform:translateX(-2160px)}14.1%{transform:translateX(-2250px)}14.5%{transform:translateX(-2340px)}14.9%{transform:translateX(-2430px)}15.6%{transform:translateX(-2520px)}16.3%{transform:translateX(-2610px)}16.6%{transform:translateX(-2700px)}17%{transform:translateX(-2790px)}17.4%{transform:translateX(-2880px)}17.8%{transform:translateX(-2970px)}18.1%{transform:translateX(-3060px)}18.5%{transform:translateX(-3150px)}18.9%{transform:translateX(-3240px)}19.3%{transform:translateX(-3330px)}19.6%{transform:translateX(-3420px)}20%{transform:translateX(-3510px)}20.4%{transform:translateX(-3600px)}20.8%{transform:translateX(-3690px)}22.5%{transform:translateX(-3780px)}28.7%{transform:translateX(-3870px)}35%{transform:translateX(-3960px)}35.6%{transform:translateX(-4050px)}36.3%{transform:translateX(-4140px)}36.9%{transform:translateX(-4230px)}37.5%{transform:translateX(-4320px)}38.1%{transform:translateX(-4410px)}38.8%{transform:translateX(-4500px)}39.4%{transform:translateX(-4590px)}40%{transform:translateX(-4680px)}40.6%{transform:translateX(-4770px)}41.3%{transform:translateX(-4860px)}41.9%{transform:translateX(-4950px)}42.5%{transform:translateX(-5040px)}43.1%{transform:translateX(-5130px)}43.8%{transform:translateX(-5220px)}50%{transform:translateX(-5310px)}68.8%{transform:translateX(-5400px)}75%{transform:translateX(-5490px)}87.5%{transform:translateX(-5580px)}100%{transform:translateX(-5670px)}}</style><g font-family="Monaco, Consolas, Menlo, &#x27;Bitstream Vera Sans Mono&#x27;, &#x27;Powerline Symbols&#x27;, monospace" font-size="1.67" class="e"><defs><symbol id="1"><text x="0" y="1.67" class="f">$</text></symbol><symbol id="2"><text x="0" y="1.67" class="f">$</text><text x="2.004" y="1.67" class="g">npx</text></symbol><symbol id="3"><text x="0" y="1.67" class="f">$</text><text x="2.004" y="1.67" class="g">npx</text><text x="6.012" y="1.67" class="g">-y</text></symbol><symbol id="4"><text x="0" y="1.67" class="f">$</text><text x="2.004" y="1.67" class="g">npx</text><text x="6.012" y="1.67" class="g">-y</text><text x="9.017999999999999" y="1.67" class="g">@vk0/agent-cost-mcp</text></symbol><symbol id="5"><text x="0" y="1.67" class="f">$</text><text x="2.004" y="1.67" class="g">npx</text><text x="6.012" y="1.67" class="g">-y</text><text x="9.017999999999999" y="1.67" class="g">@vk0/agent-cost-mcp</text><text x="29.058" y="1.67" class="g">session.jsonl</text></symbol><symbol id="6"><text x="0" y="1.67" class="h">#</text><text x="2.004" y="1.67" class="h">Parsing</text><text x="10.02" y="1.67" class="h">session</text><text x="18.035999999999998" y="1.67" class="h">log...</text></symbol><symbol id="7"><text x="0" y="1.67" class="g">{</text></symbol><symbol id="8"><text x="2.004" y="1.67" class="i">&quot;sessionPath&quot;</text><text x="15.029999999999998" y="1.67" class="g">:</text><text x="17.034" y="1.67" class="g">&quot;~/.claude/projects/my-project/session.jsonl&quot;,</text></symbol><symbol id="9"><text x="2.004" y="1.67" class="i">&quot;subagentPaths&quot;</text><text x="17.034" y="1.67" class="g">:</text><text x="19.037999999999997" y="1.67" class="g">[],</text></symbol><symbol id="10"><text x="2.004" y="1.67" class="i">&quot;turnCount&quot;</text><text x="13.026" y="1.67" class="g">:</text><text x="15.029999999999998" y="1.67" class="g">2,</text></symbol><symbol id="11"><text x="2.004" y="1.67" class="i">&quot;totals&quot;</text><text x="10.02" y="1.67" class="g">:</text><text x="12.024" y="1.67" class="g">{</text></symbol><symbol id="12"><text x="4.008" y="1.67" class="i">&quot;input_tokens&quot;</text><text x="18.035999999999998" y="1.67" class="g">:</text><text x="20.04" y="1.67" class="g">2000,</text></symbol><symbol id="13"><text x="4.008" y="1.67" class="i">&quot;output_tokens&quot;</text><text x="19.037999999999997" y="1.67" class="g">:</text><text x="21.041999999999998" y="1.67" class="g">500,</text></symbol><symbol id="14"><text x="4.008" y="1.67" class="i">&quot;cache_read_input_tokens&quot;</text><text x="29.058" y="1.67" class="g">:</text><text x="31.061999999999998" y="1.67" class="g">100,</text></symbol><symbol id="15"><text x="4.008" y="1.67" class="i">&quot;cache_creation_input_tokens&quot;</text><text x="33.065999999999995" y="1.67" class="g">:</text><text x="35.06999999999999" y="1.67" class="g">50,</text></symbol><symbol id="16"><text x="4.008" y="1.67" class="i">&quot;tool_use_count&quot;</text><text x="20.04" y="1.67" class="g">:</text><text x="22.043999999999997" y="1.67" class="g">1,</text></symbol><symbol id="17"><text x="4.008" y="1.67" class="i">&quot;tool_result_count&quot;</text><text x="23.045999999999996" y="1.67" class="g">:</text><text x="25.05" y="1.67" class="g">1,</text></symbol><symbol id="18"><text x="4.008" y="1.67" class="i">&quot;linked_tool_result_count&quot;</text><text x="30.059999999999995" y="1.67" class="g">:</text><text x="32.064" y="1.67" class="g">1,</text></symbol><symbol id="19"><text x="4.008" y="1.67" class="f">&quot;estimated_cost_usd&quot;</text><text x="24.048" y="1.67" class="g">:</text><text x="26.052" y="1.67" class="j">0.013718</text></symbol><symbol id="20"><text x="2.004" y="1.67" class="g">}</text></symbol><symbol id="21"><text x="0" y="1.67" class="g">}</text></symbol><symbol id="22"><text x="0" y="1.67" class="f">$</text><text x="2.004" y="1.67" class="h">#</text><text x="4.008" y="1.67" class="h">Cost:</text><text x="10.02" y="1.67" class="h">$0.01</text><text x="16.032" y="1.67" class="h">for</text><text x="20.04" y="1.67" class="h">2</text><text x="22.043999999999997" y="1.67" class="h">turns,</text><text x="29.058" y="1.67" class="h">2500</text><text x="34.068" y="1.67" class="h">total</text><text x="40.08" y="1.67" class="h">tokens</text></symbol><symbol id="23"><text x="0" y="1.67" class="h">#</text><text x="2.004" y="1.67" class="h">Local-first.</text><text x="15.029999999999998" y="1.67" class="h">Zero</text><text x="20.04" y="1.67" class="h">cloud.</text><text x="27.054" y="1.67" class="h">No</text><text x="30.059999999999995" y="1.67" class="h">API</text><text x="34.068" y="1.67" class="h">key.</text></symbol><symbol id="a"><rect height="21" width="90" x="0" y="0" class="k"></rect></symbol><symbol id="b"><rect height="2.171" width="1.1022" class="l"></rect></symbol></defs><rect height="43.42" width="90" class="a"></rect><g class="n"><svg x="0" y="0" width="5760"><svg x="0"><use xlink:href="#a"></use><use xlink:href="#b" x="-0.0040000000000000036" y="0"></use></svg><svg x="90"><use xlink:href="#a"></use><use xlink:href="#b" x="1.996" y="0"></use><use xlink:href="#1" y="0"></use></svg><svg x="180"><use xlink:href="#a"></use><use xlink:href="#b" x="2.996" y="0"></use><text x="0" y="1.67" class="f">$</text><text x="2.004" y="1.67" class="g">n</text></svg><svg x="270"><use xlink:href="#a"></use><use xlink:href="#b" x="3.996" y="0"></use><text x="0" y="1.67" class="f">$</text><text x="2.004" y="1.67" class="g">np</text></svg><svg x="360"><use xlink:href="#a"></use><use xlink:href="#b" x="4.996" y="0"></use><use xlink:href="#2" y="0"></use></svg><svg x="450"><use xlink:href="#a"></use><use xlink:href="#b" x="5.996" y="0"></use><use xlink:href="#2" y="0"></use></svg><svg x="540"><use xlink:href="#a"></use><use xlink:href="#b" x="6.996" y="0"></use><text x="0" y="1.67" class="f">$</text><text x="2.004" y="1.67" class="g">npx</text><text x="6.012" y="1.67" class="g">-</text></svg><svg x="630"><use xlink:href="#a"></use><use xlink:href="#b" x="7.996" y="0"></use><use xlink:href="#3" y="0"></use></svg><svg x="720"><use xlink:href="#a"></use><use xlink:href="#b" x="8.996" y="0"></use><use xlink:href="#3" y="0"></use></svg><svg x="810"><use xlink:href="#a"></use><use xlink:href="#b" x="9.996" y="0"></use><text x="0" y="1.67" class="f">$</text><text x="2.004" y="1.67" class="g">npx</text><text x="6.012" y="1.67" class="g">-y</text><text x="9.017999999999999" y="1.67" class="g">@</text></svg><svg x="900"><use xlink:href="#a"></use><use xlink:href="#b" x="10.996" y="0"></use><text x="0" y="1.67" class="f">$</text><text x="2.004" y="1.67" class="g">npx</text><text x="6.012" y="1.67" class="g">-y</text><text x="9.017999999999999" y="1.67" class="g">@v</text></svg><svg x="990"><use xlink:href="#a"></use><use xlink:href="#b" x="11.996" y="0"></use><text x="0" y="1.67" class="f">$</text><text x="2.004" y="1.67" class="g">npx</text><text x="6.012" y="1.67" class="g">-y</text><text x="9.017999999999999" y="1.67" class="g">@vk</text></svg><svg x="1080"><use xlink:href="#a"></use><use xlink:href="#b" x="12.996" y="0"></use><text x="0" y="1.67" class="f">$</text><text x="2.004" y="1.67" class="g">npx</text><text x="6.012" y="1.67" class="g">-y</text><text x="9.017999999999999" y="1.67" class="g">@vk0</text></svg><svg x="1170"><use xlink:href="#a"></use><use xlink:href="#b" x="13.996" y="0"></use><text x="0" y="1.67" class="f">$</text><text x="2.004" y="1.67" class="g">npx</text><text x="6.012" y="1.67" class="g">-y</text><text x="9.017999999999999" y="1.67" class="g">@vk0/</text></svg><svg x="1260"><use xlink:href="#a"></use><use xlink:href="#b" x="14.996" y="0"></use><text x="0" y="1.67" class="f">$</text><text x="2.004" y="1.67" class="g">npx</text><text x="6.012" y="1.67" class="g">-y</text><text x="9.017999999999999" y="1.67" class="g">@vk0/a</text></svg><svg x="1350"><use xlink:href="#a"></use><use xlink:href="#b" x="15.996" y="0"></use><text x="0" y="1.67" class="f">$</text><text x="2.004" y="1.67" class="g">npx</text><text x="6.012" y="1.67" class="g">-y</text><text x="9.017999999999999" y="1.67" class="g">@vk0/ag</text></svg><svg x="1440"><use xlink:href="#a"></use><use xlink:href="#b" x="16.996" y="0"></use><text x="0" y="1.67" class="f">$</text><text x="2.004" y="1.67" class="g">npx</text><text x="6.012" y="1.67" class="g">-y</text><text x="9.017999999999999" y="1.67" class="g">@vk0/age</text></svg><svg x="1530"><use xlink:href="#a"></use><use xlink:href="#b" x="17.996" y="0"></use><text x="0" y="1.67" class="f">$</text><text x="2.004" y="1.67" class="g">npx</text><text x="6.012" y="1.67" class="g">-y</text><text x="9.017999999999999" y="1.67" class="g">@vk0/agen</text></svg><svg x="1620"><use xlink:href="#a"></use><use xlink:href="#b" x="18.996" y="0"></use><text x="0" y="1.67" class="f">$</text><text x="2.004" y="1.67" class="g">npx</text><text x="6.012" y="1.67" class="g">-y</text><text x="9.017999999999999" y="1.67" class="g">@vk0/agent</text></svg><svg x="1710"><use xlink:href="#a"></use><use xlink:href="#b" x="19.996" y="0"></use><text x="0" y="1.67" class="f">$</text><text x="2.004" y="1.67" class="g">npx</text><text x="6.012" y="1.67" class="g">-y</text><text x="9.017999999999999" y="1.67" class="g">@vk0/agent-</text></svg><svg x="1800"><use xlink:href="#a"></use><use xlink:href="#b" x="20.996" y="0"></use><text x="0" y="1.67" class="f">$</text><text x="2.004" y="1.67" class="g">npx</text><text x="6.012" y="1.67" class="g">-y</text><text x="9.017999999999999" y="1.67" class="g">@vk0/agent-c</text></svg><svg x="1890"><use xlink:href="#a"></use><use xlink:href="#b" x="21.996" y="0"></use><text x="0" y="1.67" class="f">$</text><text x="2.004" y="1.67" class="g">npx</text><text x="6.012" y="1.67" class="g">-y</text><text x="9.017999999999999" y="1.67" class="g">@vk0/agent-co</text></svg><svg x="1980"><use xlink:href="#a"></use><use xlink:href="#b" x="22.996" y="0"></use><text x="0" y="1.67" class="f">$</text><text x="2.004" y="1.67" class="g">npx</text><text x="6.012" y="1.67" class="g">-y</text><text x="9.017999999999999" y="1.67" class="g">@vk0/agent-cos</text></svg><svg x="2070"><use xlink:href="#a"></use><use xlink:href="#b" x="23.996" y="0"></use><text x="0" y="1.67" class="f">$</text><text x="2.004" y="1.67" class="g">npx</text><text x="6.012" y="1.67" class="g">-y</text><text x="9.017999999999999" y="1.67" class="g">@vk0/agent-cost</text></svg><svg x="2160"><use xlink:href="#a"></use><use xlink:href="#b" x="24.996" y="0"></use><text x="0" y="1.67" class="f">$</text><text x="2.004" y="1.67" class="g">npx</text><text x="6.012" y="1.67" class="g">-y</text><text x="9.017999999999999" y="1.67" class="g">@vk0/agent-cost-</text></svg><svg x="2250"><use xlink:href="#a"></use><use xlink:href="#b" x="25.996" y="0"></use><text x="0" y="1.67" class="f">$</text><text x="2.004" y="1.67" class="g">npx</text><text x="6.012" y="1.67" class="g">-y</text><text x="9.017999999999999" y="1.67" class="g">@vk0/agent-cost-m</text></svg><svg x="2340"><use xlink:href="#a"></use><use xlink:href="#b" x="26.996" y="0"></use><text x="0" y="1.67" class="f">$</text><text x="2.004" y="1.67" class="g">npx</text><text x="6.012" y="1.67" class="g">-y</text><text x="9.017999999999999" y="1.67" class="g">@vk0/agent-cost-mc</text></svg><svg x="2430"><use xlink:href="#a"></use><use xlink:href="#b" x="27.996" y="0"></use><use xlink:href="#4" y="0"></use></svg><svg x="2520"><use xlink:href="#a"></use><use xlink:href="#b" x="28.996" y="0"></use><use xlink:href="#4" y="0"></use></svg><svg x="2610"><use xlink:href="#a"></use><use xlink:href="#b" x="29.996" y="0"></use><text x="0" y="1.67" class="f">$</text><text x="2.004" y="1.67" class="g">npx</text><text x="6.012" y="1.67" class="g">-y</text><text x="9.017999999999999" y="1.67" class="g">@vk0/agent-cost-mcp</text><text x="29.058" y="1.67" class="g">s</text></svg><svg x="2700"><use xlink:href="#a"></use><use xlink:href="#b" x="30.996" y="0"></use><text x="0" y="1.67" class="f">$</text><text x="2.004" y="1.67" class="g">npx</text><text x="6.012" y="1.67" class="g">-y</text><text x="9.017999999999999" y="1.67" class="g">@vk0/agent-cost-mcp</text><text x="29.058" y="1.67" class="g">se</text></svg><svg x="2790"><use xlink:href="#a"></use><use xlink:href="#b" x="31.996" y="0"></use><text x="0" y="1.67" class="f">$</text><text x="2.004" y="1.67" class="g">npx</text><text x="6.012" y="1.67" class="g">-y</text><text x="9.017999999999999" y="1.67" class="g">@vk0/agent-cost-mcp</text><text x="29.058" y="1.67" class="g">ses</text></svg><svg x="2880"><use xlink:href="#a"></use><use xlink:href="#b" x="32.996" y="0"></use><text x="0" y="1.67" class="f">$</text><text x="2.004" y="1.67" class="g">npx</text><text x="6.012" y="1.67" class="g">-y</text><text x="9.017999999999999" y="1.67" class="g">@vk0/agent-cost-mcp</text><text x="29.058" y="1.67" class="g">sess</text></svg><svg x="2970"><use xlink:href="#a"></use><use xlink:href="#b" x="33.996" y="0"></use><text x="0" y="1.67" class="f">$</text><text x="2.004" y="1.67" class="g">npx</text><text x="6.012" y="1.67" class="g">-y</text><text x="9.017999999999999" y="1.67" class="g">@vk0/agent-cost-mcp</text><text x="29.058" y="1.67" class="g">sessi</text></svg><svg x="3060"><use xlink:href="#a"></use><use xlink:href="#b" x="34.996" y="0"></use><text x="0" y="1.67" class="f">$</text><text x="2.004" y="1.67" class="g">npx</text><text x="6.012" y="1.67" class="g">-y</text><text x="9.017999999999999" y="1.67" class="g">@vk0/agent-cost-mcp</text><text x="29.058" y="1.67" class="g">sessio</text></svg><svg x="3150"><use xlink:href="#a"></use><use xlink:href="#b" x="35.996" y="0"></use><text x="0" y="1.67" class="f">$</text><text x="2.004" y="1.67" class="g">npx</text><text x="6.012" y="1.67" class="g">-y</text><text x="9.017999999999999" y="1.67" class="g">@vk0/agent-cost-mcp</text><text x="29.058" y="1.67" class="g">session</text></svg><svg x="3240"><use xlink:href="#a"></use><use xlink:href="#b" x="36.996" y="0"></use><text x="0" y="1.67" class="f">$</text><text x="2.004" y="1.67" class="g">npx</text><text x="6.012" y="1.67" class="g">-y</text><text x="9.017999999999999" y="1.67" class="g">@vk0/agent-cost-mcp</text><text x="29.058" y="1.67" class="g">session.</text></svg><svg x="3330"><use xlink:href="#a"></use><use xlink:href="#b" x="37.996" y="0"></use><text x="0" y="1.67" class="f">$</text><text x="2.004" y="1.67" class="g">npx</text><text x="6.012" y="1.67" class="g">-y</text><text x="9.017999999999999" y="1.67" class="g">@vk0/agent-cost-mcp</text><text x="29.058" y="1.67" class="g">session.j</text></svg><svg x="3420"><use xlink:href="#a"></use><use xlink:href="#b" x="38.996" y="0"></use><text x="0" y="1.67" class="f">$</text><text x="2.004" y="1.67" class="g">npx</text><text x="6.012" y="1.67" class="g">-y</text><text x="9.017999999999999" y="1.67" class="g">@vk0/agent-cost-mcp</text><text x="29.058" y="1.67" class="g">session.js</text></svg><svg x="3510"><use xlink:href="#a"></use><use xlink:href="#b" x="39.996" y="0"></use><text x="0" y="1.67" class="f">$</text><text x="2.004" y="1.67" class="g">npx</text><text x="6.012" y="1.67" class="g">-y</text><text x="9.017999999999999" y="1.67" class="g">@vk0/agent-cost-mcp</text><text x="29.058" y="1.67" class="g">session.jso</text></svg><svg x="3600"><use xlink:href="#a"></use><use xlink:href="#b" x="40.996" y="0"></use><text x="0" y="1.67" class="f">$</text><text x="2.004" y="1.67" class="g">npx</text><text x="6.012" y="1.67" class="g">-y</text><text x="9.017999999999999" y="1.67" class="g">@vk0/agent-cost-mcp</text><text x="29.058" y="1.67" class="g">session.json</text></svg><svg x="3690"><use xlink:href="#a"></use><use xlink:href="#b" x="41.996" y="0"></use><use xlink:href="#5" y="0"></use></svg><svg x="3780"><use xlink:href="#a"></use><use xlink:href="#b" x="-0.0040000000000000036" y="2.146"></use><use xlink:href="#5" y="0"></use></svg><svg x="3870"><use xlink:href="#a"></use><use xlink:href="#b" x="-0.0040000000000000036" y="4.317"></use><use xlink:href="#5" y="0"></use><use xlink:href="#6" y="2.171"></use></svg><svg x="3960"><use xlink:href="#a"></use><use xlink:href="#b" x="-0.0040000000000000036" y="6.4879999999999995"></use><use xlink:href="#5" y="0"></use><use xlink:href="#6" y="2.171"></use><use xlink:href="#7" y="4.342"></use></svg><svg x="4050"><use xlink:href="#a"></use><use xlink:href="#b" x="-0.0040000000000000036" y="8.658999999999999"></use><use xlink:href="#5" y="0"></use><use xlink:href="#6" y="2.171"></use><use xlink:href="#7" y="4.342"></use><use xlink:href="#8" y="6.513"></use></svg><svg x="4140"><use xlink:href="#a"></use><use xlink:href="#b" x="-0.0040000000000000036" y="10.83"></use><use xlink:href="#5" y="0"></use><use xlink:href="#6" y="2.171"></use><use xlink:href="#7" y="4.342"></use><use xlink:href="#8" y="6.513"></use><use xlink:href="#9" y="8.684"></use></svg><svg x="4230"><use xlink:href="#a"></use><use xlink:href="#b" x="-0.0040000000000000036" y="13.001"></use><use xlink:href="#5" y="0"></use><use xlink:href="#6" y="2.171"></use><use xlink:href="#7" y="4.342"></use><use xlink:href="#8" y="6.513"></use><use xlink:href="#9" y="8.684"></use><use xlink:href="#10" y="10.855"></use></svg><svg x="4320"><use xlink:href="#a"></use><use xlink:href="#b" x="-0.0040000000000000036" y="15.171999999999999"></use><use xlink:href="#5" y="0"></use><use xlink:href="#6" y="2.171"></use><use xlink:href="#7" y="4.342"></use><use xlink:href="#8" y="6.513"></use><use xlink:href="#9" y="8.684"></use><use xlink:href="#10" y="10.855"></use><use xlink:href="#11" y="13.026"></use></svg><svg x="4410"><use xlink:href="#a"></use><use xlink:href="#b" x="-0.0040000000000000036" y="17.343"></use><use xlink:href="#5" y="0"></use><use xlink:href="#6" y="2.171"></use><use xlink:href="#7" y="4.342"></use><use xlink:href="#8" y="6.513"></use><use xlink:href="#9" y="8.684"></use><use xlink:href="#10" y="10.855"></use><use xlink:href="#11" y="13.026"></use><use xlink:href="#12" y="15.197"></use></svg><svg x="4500"><use xlink:href="#a"></use><use xlink:href="#b" x="-0.0040000000000000036" y="19.514000000000003"></use><use xlink:href="#5" y="0"></use><use xlink:href="#6" y="2.171"></use><use xlink:href="#7" y="4.342"></use><use xlink:href="#8" y="6.513"></use><use xlink:href="#9" y="8.684"></use><use xlink:href="#10" y="10.855"></use><use xlink:href="#11" y="13.026"></use><use xlink:href="#12" y="15.197"></use><use xlink:href="#13" y="17.368"></use></svg><svg x="4590"><use xlink:href="#a"></use><use xlink:href="#b" x="-0.0040000000000000036" y="21.685000000000002"></use><use xlink:href="#5" y="0"></use><use xlink:href="#6" y="2.171"></use><use xlink:href="#7" y="4.342"></use><use xlink:href="#8" y="6.513"></use><use xlink:href="#9" y="8.684"></use><use xlink:href="#10" y="10.855"></use><use xlink:href="#11" y="13.026"></use><use xlink:href="#12" y="15.197"></use><use xlink:href="#13" y="17.368"></use><use xlink:href="#14" y="19.539"></use></svg><svg x="4680"><use xlink:href="#a"></use><use xlink:href="#b" x="-0.0040000000000000036" y="23.855999999999998"></use><use xlink:href="#5" y="0"></use><use xlink:href="#6" y="2.171"></use><use xlink:href="#7" y="4.342"></use><use xlink:href="#8" y="6.513"></use><use xlink:href="#9" y="8.684"></use><use xlink:href="#10" y="10.855"></use><use xlink:href="#11" y="13.026"></use><use xlink:href="#12" y="15.197"></use><use xlink:href="#13" y="17.368"></use><use xlink:href="#14" y="19.539"></use><use xlink:href="#15" y="21.71"></use></svg><svg x="4770"><use xlink:href="#a"></use><use xlink:href="#b" x="-0.0040000000000000036" y="26.027"></use><use xlink:href="#5" y="0"></use><use xlink:href="#6" y="2.171"></use><use xlink:href="#7" y="4.342"></use><use xlink:href="#8" y="6.513"></use><use xlink:href="#9" y="8.684"></use><use xlink:href="#10" y="10.855"></use><use xlink:href="#11" y="13.026"></use><use xlink:href="#12" y="15.197"></use><use xlink:href="#13" y="17.368"></use><use xlink:href="#14" y="19.539"></use><use xlink:href="#15" y="21.71"></use><use xlink:href="#16" y="23.880999999999997"></use></svg><svg x="4860"><use xlink:href="#a"></use><use xlink:href="#b" x="-0.0040000000000000036" y="28.198000000000004"></use><use xlink:href="#5" y="0"></use><use xlink:href="#6" y="2.171"></use><use xlink:href="#7" y="4.342"></use><use xlink:href="#8" y="6.513"></use><use xlink:href="#9" y="8.684"></use><use xlink:href="#10" y="10.855"></use><use xlink:href="#11" y="13.026"></use><use xlink:href="#12" y="15.197"></use><use xlink:href="#13" y="17.368"></use><use xlink:href="#14" y="19.539"></use><use xlink:href="#15" y="21.71"></use><use xlink:href="#16" y="23.880999999999997"></use><use xlink:href="#17" y="26.052"></use></svg><svg x="4950"><use xlink:href="#a"></use><use xlink:href="#b" x="-0.0040000000000000036" y="30.369"></use><use xlink:href="#5" y="0"></use><use xlink:href="#6" y="2.171"></use><use xlink:href="#7" y="4.342"></use><use xlink:href="#8" y="6.513"></use><use xlink:href="#9" y="8.684"></use><use xlink:href="#10" y="10.855"></use><use xlink:href="#11" y="13.026"></use><use xlink:href="#12" y="15.197"></use><use xlink:href="#13" y="17.368"></use><use xlink:href="#14" y="19.539"></use><use xlink:href="#15" y="21.71"></use><use xlink:href="#16" y="23.880999999999997"></use><use xlink:href="#17" y="26.052"></use><use xlink:href="#18" y="28.223000000000003"></use></svg><svg x="5040"><use xlink:href="#a"></use><use xlink:href="#b" x="-0.0040000000000000036" y="32.54"></use><use xlink:href="#5" y="0"></use><use xlink:href="#6" y="2.171"></use><use xlink:href="#7" y="4.342"></use><use xlink:href="#8" y="6.513"></use><use xlink:href="#9" y="8.684"></use><use xlink:href="#10" y="10.855"></use><use xlink:href="#11" y="13.026"></use><use xlink:href="#12" y="15.197"></use><use xlink:href="#13" y="17.368"></use><use xlink:href="#14" y="19.539"></use><use xlink:href="#15" y="21.71"></use><use xlink:href="#16" y="23.880999999999997"></use><use xlink:href="#17" y="26.052"></use><use xlink:href="#18" y="28.223000000000003"></use><use xlink:href="#19" y="30.394"></use></svg><svg x="5130"><use xlink:href="#a"></use><use xlink:href="#b" x="-0.0040000000000000036" y="34.711"></use><use xlink:href="#5" y="0"></use><use xlink:href="#6" y="2.171"></use><use xlink:href="#7" y="4.342"></use><use xlink:href="#8" y="6.513"></use><use xlink:href="#9" y="8.684"></use><use xlink:href="#10" y="10.855"></use><use xlink:href="#11" y="13.026"></use><use xlink:href="#12" y="15.197"></use><use xlink:href="#13" y="17.368"></use><use xlink:href="#14" y="19.539"></use><use xlink:href="#15" y="21.71"></use><use xlink:href="#16" y="23.880999999999997"></use><use xlink:href="#17" y="26.052"></use><use xlink:href="#18" y="28.223000000000003"></use><use xlink:href="#19" y="30.394"></use><use xlink:href="#20" y="32.565"></use></svg><svg x="5220"><use xlink:href="#a"></use><use xlink:href="#b" x="-0.0040000000000000036" y="36.882000000000005"></use><use xlink:href="#5" y="0"></use><use xlink:href="#6" y="2.171"></use><use xlink:href="#7" y="4.342"></use><use xlink:href="#8" y="6.513"></use><use xlink:href="#9" y="8.684"></use><use xlink:href="#10" y="10.855"></use><use xlink:href="#11" y="13.026"></use><use xlink:href="#12" y="15.197"></use><use xlink:href="#13" y="17.368"></use><use xlink:href="#14" y="19.539"></use><use xlink:href="#15" y="21.71"></use><use xlink:href="#16" y="23.880999999999997"></use><use xlink:href="#17" y="26.052"></use><use xlink:href="#18" y="28.223000000000003"></use><use xlink:href="#19" y="30.394"></use><use xlink:href="#20" y="32.565"></use><use xlink:href="#21" y="34.736"></use></svg><svg x="5310"><use xlink:href="#a"></use><use xlink:href="#b" x="1.996" y="39.053000000000004"></use><use xlink:href="#5" y="0"></use><use xlink:href="#6" y="2.171"></use><use xlink:href="#7" y="4.342"></use><use xlink:href="#8" y="6.513"></use><use xlink:href="#9" y="8.684"></use><use xlink:href="#10" y="10.855"></use><use xlink:href="#11" y="13.026"></use><use xlink:href="#12" y="15.197"></use><use xlink:href="#13" y="17.368"></use><use xlink:href="#14" y="19.539"></use><use xlink:href="#15" y="21.71"></use><use xlink:href="#16" y="23.880999999999997"></use><use xlink:href="#17" y="26.052"></use><use xlink:href="#18" y="28.223000000000003"></use><use xlink:href="#19" y="30.394"></use><use xlink:href="#20" y="32.565"></use><use xlink:href="#21" y="34.736"></use><use xlink:href="#1" y="39.078"></use></svg><svg x="5400"><use xlink:href="#a"></use><use xlink:href="#b" x="-0.0040000000000000036" y="41.224"></use><use xlink:href="#5" y="0"></use><use xlink:href="#6" y="2.171"></use><use xlink:href="#7" y="4.342"></use><use xlink:href="#8" y="6.513"></use><use xlink:href="#9" y="8.684"></use><use xlink:href="#10" y="10.855"></use><use xlink:href="#11" y="13.026"></use><use xlink:href="#12" y="15.197"></use><use xlink:href="#13" y="17.368"></use><use xlink:href="#14" y="19.539"></use><use xlink:href="#15" y="21.71"></use><use xlink:href="#16" y="23.880999999999997"></use><use xlink:href="#17" y="26.052"></use><use xlink:href="#18" y="28.223000000000003"></use><use xlink:href="#19" y="30.394"></use><use xlink:href="#20" y="32.565"></use><use xlink:href="#21" y="34.736"></use><use xlink:href="#22" y="39.078"></use></svg><svg x="5490"><use xlink:href="#a"></use><use xlink:href="#b" x="-0.0040000000000000036" y="43.395"></use><use xlink:href="#5" y="0"></use><use xlink:href="#6" y="2.171"></use><use xlink:href="#7" y="4.342"></use><use xlink:href="#8" y="6.513"></use><use xlink:href="#9" y="8.684"></use><use xlink:href="#10" y="10.855"></use><use xlink:href="#11" y="13.026"></use><use xlink:href="#12" y="15.197"></use><use xlink:href="#13" y="17.368"></use><use xlink:href="#14" y="19.539"></use><use xlink:href="#15" y="21.71"></use><use xlink:href="#16" y="23.880999999999997"></use><use xlink:href="#17" y="26.052"></use><use xlink:href="#18" y="28.223000000000003"></use><use xlink:href="#19" y="30.394"></use><use xlink:href="#20" y="32.565"></use><use xlink:href="#21" y="34.736"></use><use xlink:href="#22" y="39.078"></use><use xlink:href="#23" y="41.248999999999995"></use></svg><svg x="5580"><use xlink:href="#a"></use><use xlink:href="#b" x="1.996" y="43.395"></use><use xlink:href="#6" y="0"></use><use xlink:href="#7" y="2.171"></use><use xlink:href="#8" y="4.342"></use><use xlink:href="#9" y="6.513"></use><use xlink:href="#10" y="8.684"></use><use xlink:href="#11" y="10.855"></use><use xlink:href="#12" y="13.026"></use><use xlink:href="#13" y="15.197"></use><use xlink:href="#14" y="17.368"></use><use xlink:href="#15" y="19.539"></use><use xlink:href="#16" y="21.71"></use><use xlink:href="#17" y="23.880999999999997"></use><use xlink:href="#18" y="26.052"></use><use xlink:href="#19" y="28.223000000000003"></use><use xlink:href="#20" y="30.394"></use><use xlink:href="#21" y="32.565"></use><use xlink:href="#22" y="36.907000000000004"></use><use xlink:href="#23" y="39.078"></use><use xlink:href="#1" y="43.42"></use></svg><svg x="5670"><use xlink:href="#a"></use><use xlink:href="#b" x="1.996" y="43.395"></use><use xlink:href="#6" y="0"></use><use xlink:href="#7" y="2.171"></use><use xlink:href="#8" y="4.342"></use><use xlink:href="#9" y="6.513"></use><use xlink:href="#10" y="8.684"></use><use xlink:href="#11" y="10.855"></use><use xlink:href="#12" y="13.026"></use><use xlink:href="#13" y="15.197"></use><use xlink:href="#14" y="17.368"></use><use xlink:href="#15" y="19.539"></use><use xlink:href="#16" y="21.71"></use><use xlink:href="#17" y="23.880999999999997"></use><use xlink:href="#18" y="26.052"></use><use xlink:href="#19" y="28.223000000000003"></use><use xlink:href="#20" y="30.394"></use><use xlink:href="#21" y="32.565"></use><use xlink:href="#22" y="36.907000000000004"></use><use xlink:href="#23" y="39.078"></use><use xlink:href="#1" y="43.42"></use></svg></svg></g></g></svg></svg>